#!OML:ASF H:\Terrain\Patient Classification 1\Walking\liu\liu.ASF
:FULLY-SPECIFIED
:DEGREES
56
root 8.176016508 16.6198692843 -9.45425533099 6.9200226336 3.17605136024 -3.63226108313
lowerback -4.85725225604 1.68399836169 1.44477550074
upperback -0.553856724825 2.09407543405 3.39476486529
thorax 2.07728958787 1.0472397298 2.82228301068
lowerneck -16.886034273 -6.90324724122 -14.4208001657
upperneck 14.6538206467 -8.74373420364 15.1780535539
head 8.70043020605 -3.55789262365 6.44565415563
rclavicle -1.98454544753e-14 -1.95147602633e-14
rhumerus -34.6874173812 9.26534928946 -79.2191728888
rradius 50.4141388276
rwrist -25.6920091727
rhand -33.8706223059 -30.4746851015
rfingers 7.12502
rthumb -7.05467465967 -60.3372156859
lclavicle -1.98454544753e-14 -1.95147602633e-14
lhumerus -48.1922904828 -10.2324310186 95.8514727631
lradius 28.8782539822
lwrist 11.7564907666
lhand -12.7006926193 -23.9014215489
lfingers 7.12502
lthumb 13.3817021554 5.64881635192
rfemur -4.30920104597 5.42116623116 29.9452758978
rtibia 19.1625155146
rfoot -19.7815066321 2.87642799169
rtoes -6.76940060798
lfemur -40.7442754612 4.10682013267 -18.5737443447
ltibia 33.5609729805
lfoot -14.8383385536 8.56247799418
ltoes -14.0780913105
57
root 8.22017493458 16.57681994 -8.95012903255 7.03371750065 2.61377335625 -4.21480842933
lowerback -5.20174902091 1.57452575735 1.87498184605
upperback -0.864048686247 1.92030984314 3.50163769942
thorax 1.96761257125 0.963911311008 2.68486907248
lowerneck -16.1459682005 -6.46315104691 -14.0908667973
upperneck 14.7416203295 -8.26249619401 14.9069761174
head 8.48744155356 -3.36715100054 6.37341963056
rclavicle 2.40882340839e-15 -3.45001285023e-14
rhumerus -35.4040957765 10.8324600825 -80.6461012106
rradius 51.3747326232
rwrist -26.5937391777
rhand -33.4819844858 -30.3470770489
rfingers 7.12502
rthumb -6.67949957887 -60.2217119129
lclavicle 2.40882340839e-15 -3.45001285023e-14
lhumerus -49.4725314888 -9.90145872633 95.9979865737
lradius 28.0268085021
lwrist 10.6262849323
lhand -12.3139746025 -24.2700854923
lfingers 7.12502
lthumb 13.7543577954 5.25538596546
rfemur -0.364506761976 5.40556199551 30.5582389104
rtibia 14.8936706631
rfoot -18.9207785246 3.50762792076
rtoes -8.28432279792
lfemur -41.5968906111 1.92209291316 -16.7387719673
ltibia 27.7108653304
lfoot -15.110029794 10.1685599337
ltoes -16.4851583211
58
root 8.27720712583 16.5565009814 -8.42343860699 7.52491917292 1.34271293151 -4.80152183954
lowerback -6.45316483408 2.1155093622 2.62264159627
upperback -0.692920789438 2.52798074124 3.46266690842
thorax 2.85836721239 1.27292508246 2.32762278281
lowerneck -16.1178893151 -6.6004203792 -14.4474070539
upperneck 14.6474330296 -8.38960885607 15.0548520526
head 8.49534158511 -3.43654515996 6.46704143906
rclavicle -5.00536671112e-15 2.66597472242e-14
rhumerus -35.8418632624 11.3089748895 -81.4114831129
rradius 52.3403470265
rwrist -27.0235276391
rhand -32.9360536536 -28.0870001035
rfingers 7.12502
rthumb -6.15247442067 -57.9776284149
lclavicle -5.00536671112e-15 2.66597472242e-14
lhumerus -49.7311315231 -10.2200342238 96.03986234
lradius 27.4294060953
lwrist 9.18953928713
lhand -11.8467505848 -24.0639786934
lfingers 7.12502
lthumb 14.2046559796 5.4302651059
rfemur 3.77866744147 4.84534820693 30.7455129924
rtibia 9.86050193111
rfoot -17.0689845251 5.04193324471
rtoes -8.58224264419
lfemur -42.6319138144 0.245448664536 -14.6366040554
ltibia 22.9745811872
lfoot -15.1231000855 12.6153366098
ltoes -19.2164671184
59
root 8.32766146867 16.5090148757 -7.89726834729 7.98595126392 0.152534532734 -5.75895411738
lowerback -7.09875970009 2.37380671913 3.22977204332
upperback -0.872978871312 2.78904140407 3.76606030689
thorax 3.04162548637 1.40778128621 2.35245788927
lowerneck -16.0062287774 -6.48613391291 -14.543396403
upperneck 14.8383175237 -8.22959092428 14.9920225751
head 8.51296010056 -3.37606060426 6.49059739539
rclavicle -4.13330757203e-14 -3.79459612017e-15
rhumerus -36.8625063504 12.2447440175 -82.4234197379
rradius 53.1225527355
rwrist -27.1902051484
rhand -32.5896606833 -28.8140828195
rfingers 7.12502
rthumb -5.81804021918 -58.7142575521
lclavicle -4.13330757203e-14 -3.79459612017e-15
lhumerus -50.747672499 -11.1392676314 97.3088118122
lradius 26.7875396607
lwrist 10.1445784798
lhand -12.5841889727 -24.8784255517
lfingers 7.12502
lthumb 13.4940008227 4.6645454745
rfemur 10.2489554397 5.50433588583 31.4179420334
rtibia -0.196011398043
rfoot -12.2275126484 5.42233745245
rtoes -8.11412127822
lfemur -43.8742217742 -2.8812553999 -10.5967600816
ltibia 20.7378923535
lfoot -16.9611881642 15.3751973367
ltoes -14.7957222291
60
root 8.39195913078 16.4451373897 -7.37349633318 8.56141479016 -0.808005250992 -6.38630220683
lowerback -7.43154354737 2.54953297424 3.66277353402
upperback -1.12325497389 2.97695703557 3.84534968257
thorax 2.98271087273 1.50390227958 2.22039849608
lowerneck -15.8195878889 -6.35708798501 -14.4141675148
upperneck 14.9631724141 -8.08124492304 14.8029825805
head 8.48092602561 -3.32264361264 6.42677921125
rclavicle -1.58757213413e-14 -2.47501824159e-14
rhumerus -37.5383878946 12.8782978697 -83.6749065663
rradius 53.19547846
rwrist -26.7169798736
rhand -32.2669842065 -30.674038218
rfingers 7.12502
rthumb -5.50648758773 -60.5824998154
lclavicle -1.58757213413e-14 -2.47501824159e-14
lhumerus -51.1603089563 -9.62143457106 96.1337614875
lradius 26.1929281413
lwrist 7.00744909367
lhand -20.1711181423 -44.4466024758
lfingers 7.12502
lthumb 6.17475750667 -14.5523639735
rfemur 11.4872458484 5.91555479366 31.7763506697
rtibia -0.002903498158
rfoot -12.371508227 6.15704409513
rtoes -8.69208909825
lfemur -45.3264338194 -2.72518772411 -9.2814475028
ltibia 20.1214449572
lfoot -17.2235459827 15.4713250978
ltoes -11.9285411418
61
root 8.46846161884 16.3795942851 -6.79593849545 8.76572792304 -1.78018627474 -6.67061301086
lowerback -8.12597689869 2.74413935874 3.81131184216
upperback -0.954521127478 3.16663344666 3.85233575109
thorax 3.55133280591 1.6022469744 2.20993537736
lowerneck -15.168874437 -6.17959437971 -14.712356387
upperneck 14.3134808597 -7.86739622892 15.2544262958
head 8.14850763144 -3.22979511986 6.66047040157
rclavicle -1.79497511769e-14 -1.31862004912e-14
rhumerus -38.5380590882 13.6616846867 -84.6710961224
rradius 53.5742476387
rwrist -26.7160140955
rhand -31.5735916955 -28.8188171917
rfingers 7.12502
rthumb -4.83704359457 -58.7436272297
lclavicle -1.79497511769e-14 -1.31862004912e-14
lhumerus -51.0622499471 -9.38786748183 95.8672994894
lradius 25.0532347031
lwrist 5.25892114998
lhand -14.1327063993 -31.2275527915
lfingers 7.12502
lthumb 12.001159106 -1.59168918559
rfemur 13.4992762123 6.2414592858 31.6560326706
rtibia -1.84637166072e-06
rfoot -12.6369936453 6.8134231743
rtoes -10.4716750903
lfemur -45.5805046111 -1.07554908847 -9.92105832044
ltibia 20.6635699884
lfoot -16.0741622643 15.2013330599
ltoes -18.8620706411
62
root 8.54360210451 16.2686035878 -6.22044161678 9.18714660207 -2.72745771035 -7.27769851859
lowerback -8.20666175315 2.83658298481 3.99088066746
upperback -1.16098488834 3.27309041093 3.99534499412
thorax 3.38229448255 1.65452707454 2.26735671832
lowerneck -15.5540421227 -6.08741696076 -14.2594260808
upperneck 14.8189026618 -7.78175771832 14.9027850537
head 8.33433361025 -3.17568377771 6.47770722349
rclavicle 5.36922358594e-14 3.15352923903e-14
rhumerus -39.5436689452 13.8563343072 -85.5716413679
rradius 53.0063065625
rwrist -25.9550163502
rhand -32.360606745 -31.3614818633
rfingers 7.12502
rthumb -5.59690495376 -61.2676063674
lclavicle 5.36922358594e-14 3.15352923903e-14
lhumerus -50.7894610857 -7.40342465337 93.435991626
lradius 23.9831060281
lwrist -1.61692704764
lhand -9.34773496476 -26.7363214646
lfingers 7.12502
lthumb 16.6117130461 2.57312886888
rfemur 15.3071155532 6.63684775574 31.8593523712
rtibia 2.18668793951e-07
rfoot -12.7318256351 7.29446233096
rtoes -11.0233845538
lfemur -46.1911679707 1.67339106746 -10.7846025292
ltibia 22.5246953774
lfoot -15.1815208071 13.0912922619
ltoes -8.24363624271
63
root 8.64387417213 16.1925583938 -5.58138327249 9.71365948483 -3.77600098929 -7.91436845389
lowerback -8.94684233963 2.97579076147 4.54102777544
upperback -1.16448168229 3.34922802696 4.00830354751
thorax 3.82139499859 1.70013855505 2.02850494943
lowerneck -16.0485525545 -5.98965658899 -13.8074124227
upperneck 15.3974255978 -7.69796604249 14.6192833162
head 8.57021631007 -3.1119531909 6.320985464
rclavicle 6.53409795746e-15 -1.91783912854e-14
rhumerus -40.1605347188 13.8546722659 -86.438467848
rradius 52.0680791287
rwrist -25.2645236988
rhand -31.4764557617 -31.3583781509
rfingers 7.12502
rthumb -4.7431742505 -61.2852739054
lclavicle 6.53409795746e-15 -1.91783912854e-14
lhumerus -51.322250941 -7.72284536407 93.9244443458
lradius 23.7978957257
lwrist 1.62455054423
lhand -7.6157768527 -24.485724642
lfingers 7.12502
lthumb 18.2784352278 4.67531529593
rfemur 17.1315480013 7.20938665295 31.7997253583
rtibia -8.62880719715e-10
rfoot -11.1893845327 7.67187698162
rtoes -9.59585289563
lfemur -46.8531507149 4.15838473921 -11.6406043024
ltibia 26.2729439062
lfoot -11.4681829149 12.5051152955
ltoes -19.0489451581
